Coordinates
version=1
nRows=12
nColumns=42
inDegrees=yes

Units are S.I. units (second, meters, Newtons, ...)
If the header above contains a line with 'inDegrees', this indicates whether rotational values are in degrees (yes) or radians (no).

endheader
time	pelvis_tilt	pelvis_list	pelvis_rotation	pelvis_tx	pelvis_ty	pelvis_tz	hip_flexion_r	hip_adduction_r	hip_rotation_r	knee_angle_r	knee_adduction_r	knee_angle_r_beta	ankle_angle_r	subtalar_angle_r	mtp_angle_r	hip_flexion_l	hip_adduction_l	hip_rotation_l	knee_angle_l	knee_adduction_l	knee_angle_l_beta	ankle_angle_l	subtalar_angle_l	mtp_angle_l	lumbar_extension	lumbar_bending	lumbar_rotation	arm_flex_r	arm_add_r	arm_rot_r	elbow_flex_r	pro_sup_r	wrist_flex_r	wrist_dev_r	arm_flex_l	arm_add_l	arm_rot_l	elbow_flex_l	pro_sup_l	wrist_flex_l	wrist_dev_l
      2.32000000	     13.24838761	      1.70639988	      2.70930566	     -0.50940757	      0.91309440	     -0.00534435	      6.63481813	    -11.85314923	    -21.60186266	     20.87560892	      9.44582574	      0.36434811	      6.69864099	     29.68738932	     -7.51192372	    -25.05394056	      3.03239590	      6.02042537	     19.83271122	     -3.18950055	      0.34614611	     16.78027077	      3.81050836	     -7.51192372	    -30.42972641	      0.32307650	     -5.59936120	    -19.34693396	    -15.54108241	      5.04735685	     45.60740584	     90.00000001	      0.00000000	      0.00000000	     28.45577579	    -15.53584997	    -18.24886800	     48.53108324	     90.00000001	      0.00000000	      0.00000000
      2.33000000	     13.59741940	      1.52173587	      2.60882664	     -0.49947680	      0.91324705	     -0.00364361	      6.01081976	    -11.52189813	    -20.86748482	     21.69607233	      9.43114482	      0.37866790	      6.78587556	     29.13479641	     -7.51176120	    -25.62610628	      2.61535929	      5.89508245	     20.73852375	     -2.90775624	      0.36195552	     16.16129719	      3.61090459	     -7.51176120	    -30.52124777	      0.59226723	     -5.39749793	    -18.62870115	    -15.53967011	      4.98041114	     44.93828946	     90.00000001	      0.00000000	      0.00000000	     27.64842990	    -15.71622190	    -18.47033971	     49.59109608	     90.00000001	      0.00000000	      0.00000000
      2.34000000	     13.93940915	      1.32566965	      2.43402437	     -0.48966947	      0.91356981	     -0.00179900	      5.40300580	    -11.12571771	    -19.94618405	     22.43633168	      9.44069832	      0.39158786	      6.85156645	     28.51935450	     -7.51151302	    -25.98240611	      2.22544342	      5.61338343	     22.01649226	     -2.61688298	      0.38426028	     15.36021105	      3.38403321	     -7.51151302	    -30.63924713	      0.84934880	     -5.18042764	    -17.73938429	    -15.53153882	      4.93256063	     44.17884350	     90.00000001	      0.00000000	      0.00000000	     26.71966301	    -15.90567946	    -18.65829949	     50.75024778	     90.00000001	      0.00000000	      0.00000000
      2.35000000	     14.36999677	      1.13362054	      2.22255873	     -0.47978367	      0.91421237	      0.00021582	      4.66686516	    -10.70301525	    -19.18729905	     23.12583324	      9.41097991	      0.40362193	      6.94127394	     28.32627218	     -7.51133067	    -26.24632772	      1.84917235	      5.14692032	     23.62591618	     -2.37084867	      0.41235003	     14.19738714	      3.17855220	     -7.51133067	    -30.84834514	      1.05904016	     -4.95953666	    -16.80479985	    -15.51371896	      4.90570752	     43.46973317	     90.00000001	      0.00000000	      0.00000000	     25.73761916	    -16.09862184	    -18.90331945	     51.90468738	     90.00000001	      0.00000000	      0.00000000
      2.36000000	     14.83237895	      0.95050943	      1.96047453	     -0.46992954	      0.91505712	      0.00236836	      3.86893978	    -10.25950518	    -18.49159856	     23.72863345	      9.33868342	      0.41414278	      7.08335033	     28.38258935	     -7.51115883	    -26.30728643	      1.47497054	      4.54892509	     25.65807760	     -2.07641101	      0.44781793	     12.78071740	      2.97595800	     -7.51115883	    -31.11011710	      1.22722331	     -4.72278064	    -15.78217215	    -15.50431029	      4.91233848	     42.77089269	     90.00000001	      0.00000000	      0.00000000	     24.68207948	    -16.26472839	    -19.15053743	     53.05790094	     90.00000001	      0.00000000	      0.00000000
      2.37000000	     15.31945986	      0.74966768	      1.67346396	     -0.46007505	      0.91604038	      0.00468516	      2.99918700	     -9.76301692	    -17.87524628	     24.22596654	      9.21208619	      0.42282288	      7.30355299	     28.62759057	     -7.51098212	    -26.13983336	      1.07679719	      3.81240901	     28.14002273	     -1.81448631	      0.49113605	     11.06363627	      2.75573430	     -7.51098212	    -31.39958817	      1.37245510	     -4.47513554	    -14.70427154	    -15.48797435	      4.96198790	     42.09643839	     90.00000001	      0.00000000	      0.00000000	     23.55057104	    -16.42608246	    -19.41989358	     54.23071968	     90.00000001	      0.00000000	      0.00000000
      2.38000000	     15.79827251	      0.49841836	      1.35816455	     -0.45025146	      0.91707528	      0.00727426	      2.10562350	     -9.16208554	    -17.33215491	     24.63110397	      8.99573983	      0.42989386	      7.58193772	     29.00908115	     -7.51076346	    -25.69359257	      0.61596890	      2.94757223	     31.10734977	     -1.61920786	      0.54292568	      9.15047215	      2.49598410	     -7.51076346	    -31.68524216	      1.50609929	     -4.20151077	    -13.58856018	    -15.44748765	      5.08873742	     41.45160752	     90.00000001	      0.00000000	      0.00000000	     22.36536363	    -16.57779829	    -19.71858997	     55.40086890	     90.00000001	      0.00000000	      0.00000000
      2.39000000	     16.33976557	      0.29741586	      1.11840013	     -0.44051057	      0.91831880	      0.00956991	      1.01897608	     -8.70088068	    -16.90458830	     24.87773040	      8.94596348	      0.43419831	      7.97662010	     29.43575780	     -7.51062352	    -25.12976790	      0.16554779	      2.37465851	     34.31500973	     -1.33765539	      0.59890990	      6.76039154	      2.26805302	     -7.51062352	    -32.06847923	      1.62966793	     -4.01277317	    -12.47818352	    -15.44894918	      5.17029015	     41.06885491	     90.00000001	      0.00000000	      0.00000000	     21.19978481	    -16.65482951	    -19.99864917	     56.45345077	     90.00000001	      0.00000000	      0.00000000
      2.40000000	     16.74753152	     -0.03822850	      0.78209312	     -0.43092608	      0.91929633	      0.01232879	      0.13181999	     -7.99361745	    -16.51826633	     25.11263530	      8.64314696	      0.43829817	      8.37285217	     29.84316524	     -7.51038983	    -24.12721965	     -0.42520615	      1.56729222	     38.07197785	     -1.14264592	      0.66448137	      4.51847321	      1.61114188	     -7.51038983	    -32.31693074	      1.78684773	     -3.69808667	    -11.29373182	    -15.47895448	      5.41885555	     40.57859286	     90.00000001	      0.00000000	      0.00000000	     19.95206785	    -16.71505684	    -20.36389995	     57.54591438	     90.00000001	      0.00000000	      0.00000000
      2.41000000	     17.13514950	     -0.29694269	      0.59542524	     -0.42143612	      0.92026231	      0.01471486	     -0.87286269	     -7.48934784	    -16.03462157	     25.19946763	      8.68934733	      0.43981368	      8.92423821	     29.89791753	     -7.51010409	    -22.97188584	     -0.94445003	      1.27958027	     41.90388131	     -0.95999308	      0.73136070	      2.07292818	      1.22246491	     -7.51010409	    -32.55705427	      1.92555993	     -3.53311316	    -10.19398702	    -15.50432995	      5.56555654	     40.42926841	     90.00000001	      0.00000000	      0.00000000	     18.74244611	    -16.74627416	    -20.67685057	     58.50212962	     90.00000001	      0.00000000	      0.00000000
      2.42000000	     17.44990282	     -0.69535127	      0.30990857	     -0.41219108	      0.92110609	      0.01752065	     -1.73241282	     -6.74280858	    -15.64859533	     25.31079431	      8.47111162	      0.44175670	      9.41223185	     30.02200154	     -7.50966424	    -21.59174159	     -1.63401679	      1.18892572	     45.98840603	     -0.48783010	      0.80264910	     -0.10652769	     -0.09503080	     -7.50966424	    -32.76055221	      2.10051150	     -3.22353526	     -9.02087233	    -15.57519695	      5.97780126	     40.23082769	     90.00000001	      0.00000000	      0.00000000	     17.54875276	    -16.67925257	    -21.13106414	     59.38833037	     90.00000001	      0.00000000	      0.00000000
      2.43000000	     17.75282981	     -0.93550159	      0.20985023	     -0.40299200	      0.92193388	      0.01971953	     -2.73726854	     -6.31614736	    -15.17584886	     25.23068248	      8.63446608	      0.44035848	     10.07132578	     29.97254511	     -7.50937786	    -20.12415662	     -2.09870413	      1.53536010	     49.93772814	     -0.15631323	      0.87157778	     -2.06478801	     -0.85608554	     -7.50937786	    -32.95901624	      2.21283922	     -3.14022246	     -7.93993113	    -15.62107670	      6.14098822	     40.38521881	     90.00000001	      0.00000000	      0.00000000	     16.34512704	    -16.62795546	    -21.44961813	     60.22961755	     90.00000001	      0.00000000	      0.00000000
